Patient4_TMGait_0pt4_02_left_04_EMG.mot
version=1
nRows=23
nColumns=33
inDegrees=no
endheader
time	1LAddLong	2LGlutMax	3LGlutMed	4LIliopsoas	5LSemiMemb	6LBicFemLong	7LRecFem	8LVastMed	9LVastLat	10LGasMed	11LTibAnt	12lTibPost	13LPeroneusLong	14LSol	15LExtDigLong	16LFlexDigLong	17RAddLong	18RGlutMax	19RGlutMed	20RIliopsoas	21RSemiMemb	22RBicFemLong	23RRecFem	24RVastMed	25RVastLat	26RGasMed	27RTibAnt	28RTibPost	29RPeroneusLong	30RSol	31RExtDigLong	32RFlexDigLong
6.23	-0.003357	0.023956	-0.018768	0.007172	0.022888	0.024414	-0.063324	0.001678	-0.00473	0.60333	-0.057373	-0.019379	0.047302	-0.071106	0.035095	-0.28397	-0.014648	0.079651	0.25345	0.066376	0.41901	-0.073853	-0.15579	-0.11231	0.063477	0.010071	-0.045013	0.003815	0.053558	0.06958	-0.003967	0.000458
6.231	0.005188	0.052795	0.016479	0.003204	0.026703	-0.067749	-0.083008	-0.009766	-0.006561	0.94559	0.044708	-0.002289	0.037384	-0.16602	0.023804	0.18601	0.019531	0.14603	0.061951	0.055389	0.44769	-0.068512	-0.1297	-0.24902	0.002747	0.006104	0	-0.002136	0.014191	0.042572	-0.007324	-0.003662
6.232	0.010986	0.05249	-0.039215	-0.001678	0.040588	-0.070648	-0.099487	0.003815	-0.006561	1.3976	0.056	-0.004883	-0.005951	-0.25024	0.001526	0.23941	0.032501	0.14557	0.096283	0.093384	0.33188	-0.040436	-0.054321	-0.25559	-0.070648	0.005188	0.018616	0.003967	-0.018768	0.005341	0.003967	-0.005646
6.233	-0.000916	0.10117	-0.1004	0.000763	0.023956	-0.066528	-0.10513	0.002594	-0.006714	1.3728	-0.016632	0.002747	-0.06424	-0.089722	-0.005341	-0.005493	0.037994	0.15015	0.01709	0.064392	0.14191	0.011444	-0.057373	-0.21439	-0.21133	0.003815	0.041351	0.002594	-0.029449	0.018616	-0.006409	-0.002136
6.234	0.009003	0.10925	-0.09201	0.007477	0.033722	-0.069427	-0.12604	0.004272	-0.004883	0.70129	-0.020599	0.013428	-0.11566	0.059204	-0.001678	-0.035706	0.037231	0.1265	-0.031433	0.067444	0.04364	0.043488	-0.028229	-0.1564	-0.18188	0.011749	0.10346	0.00473	-0.032806	0.038605	0.000458	-0.007935
6.235	0.001373	0.092468	-0.1799	0.001984	0.024719	0.021973	-0.11368	-0.003204	-0.00061	-0.085144	-0.018463	0.025635	-0.10117	0.12634	0.018005	0.1152	0.037384	0.19989	-0.063019	0.02655	-0.15839	0.068512	-0.079651	-0.0737	-0.073242	0.001984	0.18173	0.004425	-0.013275	0.032959	-0.003052	-0.005035
6.236	0.003357	0.11612	-0.12268	-0.014191	0.033875	0.067444	-0.11444	0.001221	-0.01297	-0.43747	0.000763	0.012512	-0.035248	0.051575	-0.005188	-0.26291	0.0737	0.1384	0.036163	-0.010529	-0.1712	0.0177	-0.02182	-0.025635	-0.049133	0.008087	0.18051	0.006104	-0.028534	-0.031433	-0.00351	-0.014954
6.237	-0.000763	0.09903	0.036163	0.004578	0.059052	0.10574	-0.11307	-0.002747	-0.009003	-0.82001	0.005188	0.004425	0.035706	0.033569	-0.036926	-0.18478	0.054016	0.22125	0.098572	-0.050201	-0.020905	0.0177	-0.10147	-0.030823	-0.036469	0.009766	0.17853	0.003662	-0.054932	-0.090179	-0.001526	-0.012665
6.238	-0.001831	0.10071	0.1358	0.021667	0.018463	0.10635	-0.11612	0.001221	-0.010834	-1.0609	0.003204	0.007629	0.027008	0.041351	-0.041351	0.1416	0.018158	0.18341	0.18356	-0.12817	0.17578	0.069427	-0.16586	-0.043793	-0.027161	0.012512	0.1622	0.004272	-0.077972	-0.039673	-0.006104	-0.019531
6.239	-0.001373	0.091705	-0.007782	0.00885	0.007629	0.031891	-0.1442	0.002899	-0.001831	-0.68588	0.010986	0.009613	-0.042267	-0.16815	-0.05722	0.032654	-0.063629	0.20035	0.019836	-0.15839	0.41412	0.063782	-0.25223	0.092163	0.017548	0.011292	0.28534	0.004272	-0.075836	-0.004578	-0.00412	-0.010376
6.24	-0.002289	0.08255	-0.029144	0.008698	0.013428	-0.032654	-0.13931	0.006561	0.008392	-0.56519	0.012512	0.008545	-0.056763	-0.14465	-0.032196	0.076294	-0.075073	0.20355	-0.068359	-0.13168	0.55588	-0.030823	-0.19134	0.112	0.018463	0.012054	0.18417	0.005646	-0.094299	-0.036926	-0.002441	-0.011597
6.241	-0.004425	0.081635	-0.007935	-0.00885	-0.014191	0.002747	-0.16083	0.006866	0.014191	-0.33722	0.019073	0.008087	-0.005341	-0.019226	-0.00351	-0.031738	-0.019226	0.16693	-0.0354	-0.067291	0.33325	-0.070801	-0.077972	0.014648	0.009308	0.007172	0.089111	0.001831	-0.058441	-0.033875	-0.003662	-0.003815
6.242	-0.001221	0.066528	-0.008392	0.010223	-0.02243	-0.055237	-0.15488	0.00412	0.010223	0.00412	0.008545	0.018311	0.010986	-0.000916	-0.011749	-0.018005	-0.005951	0.16251	-0.0177	0.034485	0.17425	-0.085297	-0.081329	-0.034332	-0.014801	0.013275	0.17578	0.004578	0.001831	-0.039825	-0.002441	-0.002594
6.243	0.005951	0.058594	-0.009918	0.031281	-0.027924	-0.16052	-0.17609	0.006866	0.015717	0.27573	0.015259	0.010376	0.059814	0.072021	-0.000916	-0.1918	-0.013428	0.13199	0.010376	0.14236	0.16907	-0.075836	-0.10666	-0.079956	-0.009003	0.01358	0.21973	0.006104	-0.001068	-0.03006	-0.003052	-0.00946
6.244	0.005188	0.050049	0.015106	0.016327	-0.023041	-0.17059	-0.16998	0.007019	0.011444	-0.065918	0.012665	-0.009308	0.037231	0.1532	0.004272	-1.006	0.011902	0.12589	-0.027618	0.19913	0.12054	-0.086975	-0.0383	-0.1294	-0.042877	0.015869	-0.062866	0.010376	0.013275	-0.033264	-0.002747	-0.004883
6.245	0.003204	0.078888	-0.023499	0.014801	-0.011292	-0.16037	-0.15015	0.007019	0.00061	-0.22842	0.019836	-0.005951	0.03006	0.14267	0.01709	0.43976	0.030365	0.10864	0.043945	0.089264	0.14969	-0.08194	0.023041	-0.17853	-0.062561	0.021667	-0.21149	0.00412	0.019226	-0.067291	-0.002899	-0.001373
6.246	-0.000916	0.055847	-0.067596	0.008698	0.04364	-0.11353	-0.16159	0.003357	0.005341	-0.19516	0.041351	-0.005646	-0.009155	0.085602	0.02594	0.71533	0.047302	0.12207	0.020599	-0.032806	0.14145	-0.070648	0.054016	-0.22034	-0.043793	0.014801	-0.21423	0.004425	0.009613	-0.041504	-0.002289	-0.00885
6.247	0.004578	0.089569	-0.038452	0.021057	0.024414	0.034485	-0.18173	-0.001068	0.018463	-0.10712	0.025787	-0.000305	-0.007935	0.076447	0.052185	-0.31418	0.05127	0.15076	-0.082245	-0.042114	0.080109	-0.040436	-0.025635	-0.23911	-0.001221	0.014191	-0.066223	0.005798	0.001373	-0.03418	-0.003662	-0.010529
6.248	0.005188	0.11383	-0.02182	-0.000916	-0.006866	0.11475	-0.20355	0.007782	0.013885	-0.11292	0.011749	-0.009003	0.028381	0.078888	0.069427	-0.11246	0.024719	0.19073	0.042267	-0.003357	0.15778	-0.002899	-0.37277	-0.215	0.057678	0.010071	-0.011749	0.003967	0.018005	-0.020294	-0.001526	-0.006256
6.249	-0.003967	0.10956	-0.056763	0.022583	-0.012207	0.071259	-0.22415	0.002441	0.018921	-0.27298	0.008392	0	0.056305	0.069122	0.038605	0.25238	-0.023499	0.22217	0.038757	0.038147	0.17777	0.028076	-0.51758	-0.1004	0.086823	0.010986	-0.063629	0.002136	0.009308	-0.018463	-0.003052	0.002594
6.25	-0.006104	0.092468	-0.045166	-0.000763	-0.007324	0.020142	-0.18524	0.002441	0.009918	-0.43991	0.012054	-0.011902	0.15396	-0.041351	0.018311	0.73227	0.014648	0.15533	0.024261	0.041351	0.09903	-0.056458	-0.43762	0.081329	0.16342	0.012512	-0.049438	0.00351	-0.005798	-0.00885	-0.003967	-0.006256
6.251	-0.004425	0.13046	-0.030975	0.001678	-0.021973	0.025635	-0.18326	-0.001221	0.037079	-0.22873	0.003662	-0.008545	0.11948	-0.028687	-0.006256	0.38483	0.030823	0.19073	-0.086212	-0.064545	0.14267	-0.087585	-0.22247	0.24033	0.18799	0.015564	-0.002289	0.001984	-0.019226	-0.001373	0.000153	-0.002441
6.252	-0.001068	0.11917	-0.058594	0.000305	-0.049744	0.028687	-0.20844	-0.003815	0.028229	0.043488	0.019073	-0.004425	0.02121	0.067291	0.00061	-0.45044	0.03891	0.20554	-0.11765	-0.064545	0.096741	-0.047455	-0.004425	0.1506	0.097046	0.016479	0.013275	0.001984	-0.018158	-0.005341	-0.003662	-0.007172
